# AST/ASF file generated using VICON BodyLanguage
# -----------------------------------------------
:version 1.10
:name VICON
:units
  mass 1.0
  length 0.45
  angle deg
:documentation
   .ast/.asf automatically generated from VICON data using
   VICON BodyBuilder and BodyLanguage model FoxedUp or BRILLIANT.MOD
:root
   order TX TY TZ RX RY RZ
   axis XYZ
   position 0 0 0  
   orientation 0 0 0 
:bonedata
  begin
     id 1 
     name lhipjoint
     direction 0.646657 -0.683706 0.338203 
     length 2.4948 
     axis 0 0 0  XYZ
  end
  begin
     id 2 
     name lfemur
     direction 0.34202 -0.939693 0  
     length 6.79491  
     axis 0 0 20  XYZ
    dof rx ry rz
    limits (-160.0 20.0)
           (-70.0 70.0)
           (-60.0 70.0)
  end
  begin
     id 3 
     name ltibia
     direction 0.34202 -0.939693 0   
     length 7.56807   
     axis 0 0 20   XYZ
    dof rx
    limits (-10.0 170.0)
  end
  begin
     id 4 
     name lfoot
     direction 0.0679796 -0.186772 0.980048   
     length 2.53018   
     axis -90 7.62852e-016 20   XYZ
    dof rx rz
    limits (-45.0 90.0)
           (-70.0 20.0)
  end
  begin
     id 5 
     name ltoes
     direction 1.53625e-011 -4.21881e-011 1   
     length 1.26912   
     axis -90 7.62852e-016 20   XYZ
    dof rx
    limits (-90.0 20.0)
  end
  begin
     id 6 
     name rhipjoint
     direction -0.618868 -0.704065 0.348274   
     length 2.42265  
     axis 0 0 0  XYZ 
  end
  begin
     id 7 
     name rfemur
     direction -0.34202 -0.939693 0   
     length 6.73814   
     axis 0 0 -20   XYZ
    dof rx ry rz
    limits (-160.0 20.0)
           (-70.0 70.0)
           (-70.0 60.0)
  end
  begin
     id 8 
     name rtibia
     direction -0.34202 -0.939693 0   
     length 7.66799   
     axis 0 0 -20   XYZ
    dof rx
    limits (-10.0 170.0)
 end
 begin
     id 9 
     name rfoot
     direction -0.0727352 -0.199838 0.977125   
     length 2.57224  
     axis -90 -7.62852e-016 -20   XYZ
    dof rx rz
    limits (-45.0 90.0)
           (-20.0 70.0)
  end
  begin
     id 10 
     name rtoes
     direction -1.53501e-011 -4.21858e-011 1   
     length 1.28858   
     axis -90 -7.62852e-016 -20   XYZ
    dof rx
    limits (-90.0 20.0)
  end
  begin
     id 11 
     name lowerback
     direction -0.0172471 0.995767 -0.0902851   
     length 2.20206   
     axis 0 0 0   XYZ
    dof rx ry rz
    limits (-20.0 45.0)
           (-30.0 30.0)
           (-30.0 30.0)
  end
  begin
     id 12 
     name upperback
     direction -0.000110737 0.999714 0.0239043   
     length 2.19523   
     axis 0 0 0   XYZ
    dof rx ry rz
    limits (-20.0 45.0)
           (-30.0 30.0)
           (-30.0 30.0)
  end
  begin
     id 13 
     name thorax
     direction 0.00704869 0.997783 0.0661741   
     length 2.21977   
     axis 0 0 0   XYZ
    dof rx ry rz
    limits (-20.0 45.0)
           (-30.0 30.0)
           (-30.0 30.0)
  end
  begin
     id 14 
     name lowerneck
     direction -0.00407501 0.995527 0.0943846   
     length 1.83142   
     axis 0 0 0   XYZ
    dof rx ry rz
    limits (-20.0 45.0)
           (-30.0 30.0)
           (-30.0 30.0)
  end
  begin
     id 15 
     name upperneck
     direction 0.0640586 0.986486 -0.150807   
     length 1.84616   
     axis 0 0 0   XYZ
    dof rx ry rz
    limits (-20.0 45.0)
           (-30.0 30.0)
           (-30.0 30.0)
  end
  begin
     id 16
     name head
     direction 0.0188017 0.99791 -0.0618239  
     length 1.85932  
     axis 0 0 0   XYZ
    dof rx ry rz
    limits (-20.0 45.0)
           (-30.0 30.0)
           (-30.0 30.0)
  end
  begin
     id 17 
     name lclavicle
     direction 0.976074 0.206905 0.066852  
     length 3.81043  
     axis 0 0 0   XYZ
    dof ry rz
    limits (-20.0 10.0)
           (0.0 20.0)
  end
  begin
     id 18 
     name lhumerus
     direction 1 -4.48971e-011 1.86916e-027   
     length 5.37587   
     axis 180 -30 -90   XYZ
    dof rx ry rz
    limits (-60.0 90.0)
           (-90.0 90.0)
           (-90.0 90.0)
  end
  begin
     id 19
     name lradius
     direction 1 -4.48968e-011 1.69187e-027   
     length 3.35977   
     axis 180 -30 -90   XYZ
    dof rx
    limits (-10.0 170.0)
  end
  begin
     id 20
     name lwrist
     direction 1 -4.48968e-011 5.8978e-027   
     length 1.67988   
     axis -3.27506e-015 90 90   XYZ
    dof ry
    limits (-180.0 0.0)
 end
  begin
     id 21 
     name lhand
     direction 1 -4.49028e-011 1.18071e-026   
     length 0.561859   
     axis -7.52654e-015 90 90   XYZ
    dof rx rz
    limits (-90.0 90.0)
           (-45.0 45.0)
  end
  begin
     id 22 
     name lfingers
     direction 1 -4.48927e-011 2.35758e-026   
     length 0.452985   
     axis -1.50534e-014 90 90   XYZ
    dof rx
    limits (0.0 90.0)
  end
  begin
     id 23
     name lthumb
     direction 0.707107 -6.34898e-011 0.707107   
     length 0.650399   
     axis -90 45 5.69224e-014   XYZ
    dof rx rz
    limits (-45.0 45.0)
           (-45.0 45.0)
  end
  begin
     id 24 
     name rclavicle
     direction -0.988403 0.151789 0.00439714   
     length 3.6942  
     axis 0 0 0   XYZ 
    dof ry rz
    limits (-10.0 20.0)
           (-20.0 0.0)
  end
  begin
     id 25 
     name rhumerus
     direction -1 -4.48978e-011 1.62495e-027  
     length 5.22819   
     axis 180 30 90   XYZ
    dof rx ry rz
    limits (-90.0 60.0)
           (-90.0 90.0)
           (-90.0 90.0)
  end
  begin
     id 26 
     name rradius
     direction -1 -4.48961e-011 3.47796e-027   
     length 3.40764   
     axis 180 30 90   XYZ
    dof rx
    limits (-10.0 170.0)
  end
  begin
     id 27 
     name rwrist
     direction -1 -4.48949e-011 5.89602e-027   
     length 1.70382   
     axis -3.27506e-015 -90 -90   XYZ
    dof ry
    limits (-180.0 0.0)
  end
  begin
     id 28
     name rhand
     direction -1 -4.48977e-011 1.17973e-026   
     length 0.583255   
     axis -7.52654e-015 -90 -90   XYZ
    dof rx rz
    limits (-90.0 90.0)
           (-45.0 45.0)
  end
  begin
     id 29
     name rfingers
     direction -1 -4.49099e-011 2.36408e-026   
     length 0.470235   
     axis -1.50534e-014 -90 -90   XYZ
    dof rx
    limits (0.0 90.0)
  end
  begin
     id 30
     name rthumb
     direction -0.707107 -6.35011e-011 0.707107   
     length 0.675167   
     axis -90 -45 -5.69224e-014   XYZ
    dof rx rz
    limits (-45.0 45.0)
           (-45.0 45.0)
  end
:hierarchy
  begin
    root lhipjoint rhipjoint lowerback
    lhipjoint lfemur
    lfemur ltibia
    ltibia lfoot
    lfoot ltoes
    rhipjoint rfemur
    rfemur rtibia
    rtibia rfoot
    rfoot rtoes
    lowerback upperback
    upperback thorax
    thorax lowerneck lclavicle rclavicle
    lowerneck upperneck
    upperneck head
    lclavicle lhumerus
    lhumerus lradius
    lradius lwrist
    lwrist lhand lthumb
    lhand lfingers
    rclavicle rhumerus
    rhumerus rradius
    rradius rwrist
    rwrist rhand rthumb
    rhand rfingers
  end

#!OML:ASF G:\JayActor3\Patient Classification 1\Patient 1\Session 2\male.ASF
:FULLY-SPECIFIED
:DEGREES
1801
root 31.9336 16.6395 -6.34417 467.26 80.6306 -970.906
lowerback 4.78765 -2.58497 -9.4275
upperback 3.11701 -3.59927 -4.0395
thorax 0.893717 -1.82039 1.20767
lowerneck -11.5614 -0.650147 -2.91535
upperneck 23.3032 -1.57513 7.05369
head 9.30116 -0.0701954 2.77456
rclavicle 4.8901e-014 2.78299e-014
rhumerus -43.0773 34.2426 -85.6031
rradius 63.5065
rwrist -2.49843
rhand -40.9932 17.7216
rfingers 7.12502
rthumb -13.9251 -11.7922
lclavicle 4.8901e-014 2.78299e-014
lhumerus -12.7717 -43.5677 77.1657
lradius 87.4065
lwrist 15.2947
lhand -31.1696 12.052
lfingers 7.12502
lthumb -4.44693 41.9853
rfemur -38.0933 -2.40569 10.5514
rtibia 31.1701
rfoot -5.53221 -20.1852
rtoes 19.4539
lfemur 12.0103 12.3189 -29.1491
ltibia 13.4293
lfoot -8.82451 3.69537
ltoes -20.9818
1802
root 32.1859 16.6629 -6.32945 468.253 80.4326 -969.982
lowerback 4.33539 -2.75708 -9.62408
upperback 3.14843 -3.77693 -3.92736
thorax 1.21786 -1.92779 1.40748
lowerneck -11.5797 -0.662372 -2.84827
upperneck 23.2883 -1.57422 6.90384
head 9.29799 -0.0814297 2.71048
rclavicle -7.10655e-015 9.93923e-015
rhumerus -43.7141 34.0345 -85.5157
rradius 63.7305
rwrist -2.52573
rhand -40.9424 17.6745
rfingers 7.12502
rthumb -13.8761 -11.8426
lclavicle -7.10655e-015 9.93923e-015
lhumerus -12.7325 -43.6178 77.0004
lradius 88.3943
lwrist 15.1538
lhand -30.9829 11.84
lfingers 7.12502
lthumb -4.2666 41.777
rfemur -38.1657 -2.77889 10.7053
rtibia 29.5107
rfoot -6.91924 -22.1687
rtoes 24.2039
lfemur 14.0853 12.0971 -28.9878
ltibia 11.1025
lfoot -7.44121 3.63937
ltoes -21.9553
1803
root 32.4399 16.6841 -6.31328 469.507 80.2663 -968.796
lowerback 3.88273 -2.93027 -9.76191
upperback 3.17459 -3.95488 -3.79962
thorax 1.53555 -2.03531 1.58841
lowerneck -11.5873 -0.685739 -2.78489
upperneck 23.2581 -1.58888 6.75891
head 9.28835 -0.100109 2.64662
rclavicle -2.70347e-014 1.59028e-015
rhumerus -44.3391 33.8065 -85.4475
rradius 63.9363
rwrist -2.54693
rhand -40.9031 17.6303
rfingers 7.12502
rthumb -13.8382 -11.8894
lclavicle -2.70347e-014 1.59028e-015
lhumerus -12.8376 -43.6912 76.9368
lradius 89.2613
lwrist 14.952
lhand -30.7406 11.6385
lfingers 7.12502
lthumb -4.03269 41.5801
rfemur -38.2554 -3.15375 10.9211
rtibia 28.1872
rfoot -9.3781 -23.7614
rtoes 29.228
lfemur 16.3158 11.9492 -28.7421
ltibia 8.49461
lfoot -5.86173 3.50547
ltoes -22.8101
1804
root 32.695 16.7016 -6.29567 470.935 80.1454 -967.421
lowerback 3.45046 -3.09578 -9.83167
upperback 3.19694 -4.12506 -3.65424
thorax 1.83474 -2.13806 1.74898
lowerneck -11.584 -0.717779 -2.72577
upperneck 23.2112 -1.61629 6.62247
head 9.27159 -0.124599 2.58465
rclavicle 9.14409e-015 9.14409e-015
rhumerus -44.9563 33.562 -85.4022
rradius 64.1264
rwrist -2.56965
rhand -40.8759 17.5848
rfingers 7.12502
rthumb -13.8121 -11.9367
lclavicle 9.14409e-015 9.14409e-015
lhumerus -13.0759 -43.7867 76.9808
lradius 89.9894
lwrist 14.7271
lhand -30.4542 11.456
lfingers 7.12502
lthumb -3.75611 41.4027
rfemur -38.3269 -3.5353 11.2219
rtibia 27.1807
rfoot -12.7336 -24.7117
rtoes 34.1187
lfemur 18.7368 11.7686 -28.4257
ltibia 5.55112
lfoot -4.05655 3.43331
ltoes -23.547
1805
root 32.9505 16.714 -6.27646 472.407 80.0733 -965.977
lowerback 3.05372 -3.2434 -9.84086
upperback 3.21873 -4.27659 -3.49159
thorax 2.10916 -2.23024 1.89432
lowerneck -11.5655 -0.759515 -2.67994
upperneck 23.1391 -1.65803 6.50375
head 9.24408 -0.155678 2.52896
rclavicle -9.59136e-015 9.54166e-015
rhumerus -45.5592 33.3038 -85.3774
rradius 64.2969
rwrist -2.5928
rhand -40.8615 17.5441
rfingers 7.12502
rthumb -13.7982 -11.9783
lclavicle -9.59136e-015 9.54166e-015
lhumerus -13.4301 -43.8958 77.1343
lradius 90.5637
lwrist 14.5187
lhand -30.1306 11.2941
lfingers 7.12502
lthumb -3.44356 41.2461
rfemur -38.3467 -3.97982 11.639
rtibia 26.4578
rfoot -16.4117 -24.968
rtoes 38.3031
lfemur 21.7682 11.5739 -28.0402
ltibia 1.5227
lfoot -1.67535 3.46124
ltoes -24.286
1806
root 33.2058 16.7203 -6.25534 473.794 80.0428 -964.583
lowerback 2.70569 -3.36446 -9.81285
upperback 3.24271 -4.39995 -3.31581
thorax 2.35437 -2.30701 2.03455
lowerneck -11.536 -0.811367 -2.65487
upperneck 23.0434 -1.71526 6.41185
head 9.20738 -0.193475 2.48395
rclavicle 1.26228e-014 -1.59028e-015
rhumerus -46.1442 33.0338 -85.3749
rradius 64.4451
rwrist -2.61004
rhand -40.8602 17.5185
rfingers 7.12502
rthumb -13.7969 -12.004
lclavicle 1.26228e-014 -1.59028e-015
lhumerus -13.8874 -44.0076 77.3981
lradius 90.9751
lwrist 14.3582
lhand -29.7687 11.1633
lfingers 7.12502
lthumb -3.0941 41.1206
rfemur -38.2885 -4.56223 12.1971
rtibia 25.9818
rfoot -19.6597 -24.8232
rtoes 41.359
lfemur 23.4599 11.4046 -27.6045
ltibia -4.45278e-014
lfoot -0.336618 3.51048
ltoes -24.9976
1807
root 33.4603 16.7202 -6.23243 474.956 80.0434 -963.374
lowerback 2.41918 -3.45309 -9.7709
upperback 3.26982 -4.48875 -3.13275
thorax 2.56461 -2.36514 2.17807
lowerneck -11.5012 -0.873043 -2.65319
upperneck 22.9343 -1.78747 6.34801
head 9.16617 -0.237529 2.45084
rclavicle -6.48286e-014 -3.77691e-014
rhumerus -46.6998 32.7594 -85.3921
rradius 64.5608
rwrist -2.60313
rhand -40.8712 17.516
rfingers 7.12502
rthumb -13.8075 -12.0057
lclavicle -6.48286e-014 -3.77691e-014
lhumerus -14.4461 -44.1044 77.7767
lradius 91.223
lwrist 14.2677
lhand -29.3668 11.0679
lfingers 7.12502
lthumb -2.70598 41.0304
rfemur -38.1364 -5.33345 12.8944
rtibia 25.7283
rfoot -21.9674 -24.6967
rtoes 43.3319
lfemur 24.3529 11.2849 -27.1397
ltibia -3.81667e-014
lfoot 0.418306 3.59344
ltoes -25.7028
1808
root 33.7135 16.714 -6.20789 475.769 80.0604 -962.474
lowerback 2.19347 -3.50669 -9.74044
upperback 3.29844 -4.53894 -2.95117
thorax 2.73934 -2.40277 2.3306
lowerneck -11.4629 -0.942529 -2.66663
upperneck 22.8168 -1.87197 6.30521
head 9.12236 -0.286513 2.42617
rclavicle -2.84511e-014 1.39149e-015
rhumerus -47.2181 32.4864 -85.4344
rradius 64.6324
rwrist -2.55911
rhand -40.8894 17.537
rfingers 7.12502
rthumb -13.8251 -11.9836
lclavicle -2.84511e-014 1.39149e-015
lhumerus -15.1048 -44.1715 78.2674
lradius 91.3109
lwrist 14.2455
lhand -28.9222 11.0164
lfingers 7.12502
lthumb -2.27659 40.984
rfemur -37.893 -6.2781 13.6889
rtibia 25.6868
rfoot -23.03 -24.9698
rtoes 44.3472
lfemur 23.4899 11.2526 -26.6707
ltibia 3.26398
lfoot -0.168649 3.65152
ltoes -26.3534
1809
root 33.9653 16.7015 -6.18202 476.179 80.0741 -961.943
lowerback 2.02612 -3.52638 -9.74055
upperback 3.32541 -4.55102 -2.78107
thorax 2.87724 -2.42021 2.49281
lowerneck -11.4272 -1.02129 -2.68876
upperneck 22.7113 -1.97088 6.27703
head 9.08422 -0.340945 2.40685
rclavicle 1.9953e-014 -1.15295e-014
rhumerus -47.692 32.2082 -85.5018
rradius 64.6514
rwrist -2.45949
rhand -40.9236 17.5781
rfingers 7.12502
rthumb -13.858 -11.9402
lclavicle 1.9953e-014 -1.15295e-014
lhumerus -15.8623 -44.2053 78.8656
lradius 91.2421
lwrist 14.295
lhand -28.4391 10.9949
lfingers 7.12502
lthumb -1.81 40.967
rfemur -37.5848 -7.36481 14.5217
rtibia 25.882
rfoot -22.48 -25.8923
rtoes 44.4023
lfemur 22.4348 11.289 -26.2209
ltibia 6.90829
lfoot -0.765744 3.77946
ltoes -26.8063
1810
root 34.2156 16.683 -6.15546 476.174 80.0758 -961.796
lowerback 1.91517 -3.51575 -9.77168
upperback 3.34704 -4.52914 -2.62962
thorax 2.97512 -2.41918 2.65791
lowerneck -11.3911 -1.10794 -2.70846
upperneck 22.6292 -2.08224 6.25312
head 9.05483 -0.399782 2.38782
rclavicle -1.82758e-014 6.75868e-015
rhumerus -48.1234 31.9317 -85.6073
rradius 64.6095
rwrist -2.32359
rhand -40.9529 17.6292
rfingers 7.12502
rthumb -13.8863 -11.8871
lclavicle -1.82758e-014 6.75868e-015
lhumerus -16.7335 -44.1978 79.5693
lradius 91.0291
lwrist 14.3908
lhand -27.9355 11.0093
lfingers 7.12502
lthumb -1.32362 40.985
rfemur -37.2348 -8.46716 15.3071
rtibia 26.3399
rfoot -20.027 -27.3032
rtoes 43.4964
lfemur 21.6169 11.3819 -25.7983
ltibia 10.1407
lfoot -0.986795 4.0249
ltoes -26.8786
1811
root 34.4645 16.661 -6.12884 475.808 80.0618 -961.974
lowerback 1.86196 -3.47892 -9.82272
upperback 3.36211 -4.47876 -2.50065
thorax 3.0299 -2.40191 2.81607
lowerneck -11.3548 -1.20457 -2.72369
upperneck 22.5818 -2.20843 6.2287
head 9.03815 -0.464161 2.36703
rclavicle -1.06598e-014 1.81888e-014
rhumerus -48.5118 31.6521 -85.7527
rradius 64.5021
rwrist -2.14952
rhand -40.9654 17.6785
rfingers 7.12502
rthumb -13.8983 -11.837
lclavicle -1.06598e-014 1.81888e-014
lhumerus -17.7154 -44.1501 80.3664
lradius 90.6761
lwrist 14.516
lhand -27.4249 11.0417
lfingers 7.12502
lthumb -0.830432 41.0198
rfemur -36.855 -9.52367 16.0042
rtibia 27.0834
rfoot -15.5804 -28.6743
rtoes 41.3201
lfemur 20.8813 11.7918 -25.2907
ltibia 13.2782
lfoot -0.911089 4.11266
ltoes -26.5541
1812
root 34.7123 16.6363 -6.1027 475.201 80.0347 -962.357
lowerback 1.86239 -3.42182 -9.87279
upperback 3.37143 -4.40729 -2.39388
thorax 3.04353 -2.37169 2.95563
lowerneck -11.3138 -1.31285 -2.73476
upperneck 22.5728 -2.35119 6.20148
head 9.03465 -0.53509 2.34356
rclavicle 2.91841e-014 8.64713e-015
rhumerus -48.8591 31.3658 -85.9397
rradius 64.3313
rwrist -1.96107
rhand -40.9629 17.7126
rfingers 7.12502
rthumb -13.8959 -11.8031
lclavicle 2.91841e-014 8.64713e-015
lhumerus -18.8101 -44.0644 81.2496
lradius 90.1917
lwrist 14.6422
lhand -26.9371 11.0912
lfingers 7.12502
lthumb -0.359312 41.0707
rfemur -36.4581 -10.4844 16.5942
rtibia 28.0959
rfoot -10.0201 -29.1015
rtoes 38.0497
lfemur 20.1767 12.3225 -24.7534
ltibia 16.389
lfoot -0.548407 4.23115
ltoes -25.8134
1813
root 34.9595 16.6104 -6.07734 474.454 80.0033 -962.845
lowerback 1.90018 -3.35111 -9.90358
upperback 3.38216 -4.32126 -2.30533
thorax 3.03219 -2.33221 3.06887
lowerneck -11.2626 -1.43123 -2.74486
upperneck 22.5899 -2.50812 6.17378
head 9.03891 -0.611862 2.31874
rclavicle 6.97501e-014 7.28049e-015
rhumerus -49.149 31.0765 -86.161
rradius 64.0974
rwrist -1.78316
rhand -40.9455 17.7294
rfingers 7.12502
rthumb -13.8791 -11.7875
lclavicle 6.97501e-014 7.28049e-015
lhumerus -19.9981 -43.9351 82.1973
lradius 89.5802
lwrist 14.748
lhand -26.496 11.1477
lfingers 7.12502
lthumb 0.0666572 41.1274
rfemur -36.0446 -11.2949 17.0664
rtibia 29.3326
rfoot -4.97297 -28.1784
rtoes 34.5463
lfemur 19.4825 12.9319 -24.1755
ltibia 19.4991
lfoot 0.115879 4.38671
ltoes -24.767
1814
root 35.2061 16.5843 -6.0526 473.648 79.98 -963.364
lowerback 1.95622 -3.27158 -9.90462
upperback 3.40157 -4.22446 -2.2273
thorax 3.01458 -2.28625 3.15612
lowerneck -11.1737 -1.55061 -2.77123
upperneck 22.597 -2.66633 6.16337
head 9.03312 -0.689264 2.30243
rclavicle 1.85926e-014 -3.02401e-014
rhumerus -49.3674 30.7872 -86.4047
rradius 63.8082
rwrist -1.63798
rhand -40.9122 17.7302
rfingers 7.12502
rthumb -13.8471 -11.7889
lclavicle 1.85926e-014 -3.02401e-014
lhumerus -21.2618 -43.7538 83.1933
lradius 88.8477
lwrist 14.813
lhand -26.1114 11.2059
lfingers 7.12502
lthumb 0.438104 41.1852
rfemur -35.6074 -11.8929 17.4197
rtibia 30.7104
rfoot -1.76126 -26.4238
rtoes 31.9483
lfemur 18.7687 13.5607 -23.5562
ltibia 22.64
lfoot 1.08737 4.58832
ltoes -23.5491
